<?xml version="1.0" standalone="no"?>
<!DOCTYPE svg PUBLIC "-//W3C//DTD SVG 20010904//EN"
 "http://www.w3.org/TR/2001/REC-SVG-20010904/DTD/svg10.dtd">
<svg version="1.0" xmlns="http://www.w3.org/2000/svg"
 width="630.000000pt" height="152.000000pt" viewBox="0 0 630.000000 152.000000"
 preserveAspectRatio="xMidYMid meet">

<g transform="translate(0.000000,152.000000) scale(0.100000,-0.100000)"
fill="#000000" stroke="none">
<path d="M1346 1510 c-332 -31 -620 -152 -827 -347 -67 -64 -159 -176 -159
-194 0 -5 118 -9 273 -9 l274 0 24 26 c36 40 162 120 226 144 175 65 391 70
617 14 32 -9 60 -13 63 -10 5 4 60 207 82 298 10 43 18 40 -149 62 -153 20
-315 26 -424 16z"/>
<path d="M1485 1049 c-68 -8 -194 -60 -202 -84 -2 -6 17 -16 41 -23 24 -6 58
-25 75 -42 l31 -31 21 20 c25 23 93 36 138 26 97 -21 141 -142 89 -245 -45
-89 -165 -115 -238 -53 -28 23 -32 24 -48 10 -21 -19 -66 -38 -112 -46 -19 -4
-35 -11 -34 -16 1 -21 99 -84 154 -99 31 -9 92 -16 135 -16 153 0 263 55 319
160 39 71 48 186 21 256 -52 136 -196 204 -390 183z"/>
<path d="M4875 1054 c-5 -1 -32 -5 -58 -9 -87 -12 -158 -101 -143 -178 8 -40
57 -102 124 -157 30 -24 61 -55 70 -68 15 -23 15 -26 -7 -43 -30 -25 -86 -24
-158 1 l-56 19 6 -71 c3 -39 10 -75 16 -81 5 -5 61 -12 124 -15 107 -4 118 -3
170 21 37 17 63 37 77 59 56 93 29 164 -101 264 -64 49 -82 74 -73 98 9 23 69
30 138 18 33 -6 60 -10 61 -9 1 1 -1 31 -4 66 -6 62 -7 65 -36 72 -36 8 -136
18 -150 13z"/>
<path d="M1986 933 c-9 -150 -36 -434 -42 -455 -5 -16 3 -18 74 -18 l80 0 7
108 c3 59 9 143 13 187 l8 80 42 -173 c23 -95 42 -180 42 -188 0 -11 17 -14
84 -14 l83 0 62 190 c34 105 64 190 66 190 4 0 -3 -222 -9 -322 l-4 -58 84 0
84 0 0 133 c0 72 3 203 7 290 l6 157 -124 0 -124 0 -33 -98 c-19 -53 -43 -130
-55 -171 -19 -67 -22 -72 -28 -45 -4 16 -22 93 -40 172 l-32 142 -122 0 -122
0 -7 -107z"/>
<path d="M2910 928 c-30 -61 -95 -185 -143 -276 -49 -90 -91 -170 -94 -178 -4
-11 13 -14 95 -14 l100 0 38 80 37 80 107 0 106 0 25 -77 25 -78 101 -3 100
-3 -66 178 c-37 98 -85 229 -106 291 l-39 112 -116 0 -115 0 -55 -112z m185
-98 c10 -30 20 -61 23 -67 3 -10 -12 -13 -58 -13 -34 0 -60 4 -58 8 22 59 64
139 69 134 4 -4 15 -32 24 -62z"/>
<path d="M3360 1034 c0 -4 38 -116 84 -248 47 -133 90 -260 97 -283 l12 -43
109 0 108 0 142 283 c79 155 144 285 146 290 2 4 -41 7 -96 7 l-100 0 -12 -32
c-7 -18 -33 -76 -57 -128 -25 -52 -61 -133 -80 -178 l-36 -84 -18 69 c-10 37
-38 131 -63 208 l-44 140 -96 3 c-53 1 -96 0 -96 -4z"/>
<path d="M4077 848 c-4 -106 -10 -237 -13 -290 l-7 -98 100 0 100 0 7 263 c3
144 9 274 12 290 l6 27 -99 0 -100 0 -6 -192z"/>
<path d="M5608 942 c-58 -119 -178 -346 -223 -424 l-34 -58 104 0 105 0 36 80
37 80 107 0 107 0 25 -77 24 -78 101 -3 101 -3 -33 88 c-18 48 -66 179 -106
290 l-74 203 -115 -1 -115 0 -47 -97z m198 -190 c-2 -2 -29 -2 -59 0 l-56 3
35 75 36 75 23 -75 c14 -41 23 -76 21 -78z"/>
<path d="M0 765 l0 -155 618 0 c370 0 631 4 651 10 51 14 99 51 117 89 23 47
14 123 -17 158 -50 54 -37 53 -729 53 l-640 0 0 -155z"/>
<path d="M5170 578 c0 -24 -3 -60 -6 -80 l-7 -38 85 0 85 0 7 38 c3 20 6 56 6
80 l0 42 -85 0 -85 0 0 -42z"/>
<path d="M6136 598 c-3 -13 -6 -49 -6 -80 l0 -58 85 0 85 0 0 80 0 80 -79 0
c-73 0 -79 -2 -85 -22z"/>
<path d="M205 546 c-15 -80 19 -220 74 -300 66 -95 184 -168 347 -213 96 -27
106 -28 359 -28 143 0 294 4 335 8 l76 8 87 175 c48 96 87 176 87 177 0 2 -60
-7 -132 -20 -190 -34 -396 -37 -494 -6 -109 35 -173 93 -195 181 -6 23 -12 42
-13 42 0 0 -119 3 -263 7 l-262 6 -6 -37z"/>
<path d="M1665 350 c-49 -3 -76 -7 -60 -8 17 -1 25 -6 20 -10 -8 -5 -16 -102
-8 -102 1 0 9 7 18 16 12 12 13 19 5 24 -8 5 -7 9 3 13 20 8 14 -29 -9 -54
-12 -14 -17 -39 -17 -103 -1 -47 2 -88 6 -92 4 -4 1016 -9 2250 -12 l2242 -5
80 164 c44 90 82 167 83 171 4 9 -4482 7 -4613 -2z m-18 -152 c-3 -8 -6 -5 -6
6 -1 11 2 17 5 13 3 -3 4 -12 1 -19z m8 -28 c3 -6 -1 -7 -9 -4 -18 7 -21 14
-7 14 6 0 13 -4 16 -10z m-1 -102 c-3 -4 -12 -8 -20 -8 -8 0 -13 4 -10 8 3 5
12 9 20 9 8 0 13 -4 10 -9z"/>
<path d="M1580 320 c0 -5 5 -10 11 -10 5 0 7 5 4 10 -3 6 -8 10 -11 10 -2 0
-4 -4 -4 -10z"/>
<path d="M1583 255 c0 -22 2 -30 4 -17 2 12 2 30 0 40 -3 9 -5 -1 -4 -23z"/>
</g>
</svg>
